<?xml version="1.0" encoding="utf-8"?>
<!-- Generator: Adobe Illustrator 19.2.0, SVG Export Plug-In . SVG Version: 6.00 Build 0)  -->
<svg version="1.1" id="Layer_1" xmlns="http://www.w3.org/2000/svg" xmlns:xlink="http://www.w3.org/1999/xlink" x="0px" y="0px"
	 viewBox="0 0 600 398.8" style="enable-background:new 0 0 600 398.8;" xml:space="preserve">
<style type="text/css">
	.st0{fill:none;stroke:#000000;stroke-width:0.25;stroke-miterlimit:10;}
</style>
<g id="_x38_">
</g>
<g id="_x39_">
</g>
<g id="_x31_0">
</g>
<g id="_x31_1">
</g>
<g id="_x31_2">
</g>
<g>
	<g id="_x31_">
		<rect x="3.5" y="2.3" class="st0" width="63.1" height="63.1"/>
		<rect x="69.8" y="2.3" class="st0" width="63.1" height="63.1"/>
		<rect x="136" y="2.3" class="st0" width="63.1" height="63.1"/>
		<rect x="202.2" y="2.3" class="st0" width="63.1" height="63.1"/>
		<rect x="268.5" y="2.3" class="st0" width="63.1" height="63.1"/>
		<rect x="334.7" y="2.3" class="st0" width="63.1" height="63.1"/>
		<rect x="400.9" y="2.3" class="st0" width="63.1" height="63.1"/>
		<rect x="467.1" y="2.3" class="st0" width="63.1" height="63.1"/>
		<rect x="533.4" y="2.3" class="st0" width="63.1" height="63.1"/>
		<rect x="29.7" y="28.5" width="10.8" height="10.8"/>
		<rect x="95.9" y="31.7" width="10.8" height="10.8"/>
		<rect x="162.2" y="34.8" width="10.8" height="10.8"/>
		<rect x="228.4" y="38" width="10.8" height="10.8"/>
		<rect x="294.6" y="41.1" width="10.8" height="10.8"/>
		<rect x="360.9" y="44.3" width="10.8" height="10.8"/>
		<rect x="427.1" y="47.4" width="10.8" height="10.8"/>
		<rect x="493.3" y="50.6" width="10.8" height="10.8"/>
		<rect x="559.5" y="54.8" width="10.8" height="10.8"/>
	</g>
	<g id="_x32_">
		<rect x="3.5" y="68.5" class="st0" width="63.1" height="63.1"/>
		<rect x="69.8" y="68.5" class="st0" width="63.1" height="63.1"/>
		<rect x="136" y="68.5" class="st0" width="63.1" height="63.1"/>
		<rect x="202.2" y="68.5" class="st0" width="63.1" height="63.1"/>
		<rect x="268.5" y="68.5" class="st0" width="63.1" height="63.1"/>
		<rect x="334.7" y="68.5" class="st0" width="63.1" height="63.1"/>
		<rect x="400.9" y="68.5" class="st0" width="63.1" height="63.1"/>
		<rect x="467.1" y="68.5" class="st0" width="63.1" height="63.1"/>
		<rect x="533.4" y="68.5" class="st0" width="63.1" height="63.1"/>
		<rect x="29.7" y="94.6" width="10.8" height="10.8"/>
		<rect x="95.9" y="101" width="10.8" height="10.8"/>
		<rect x="162.2" y="107.3" width="10.8" height="10.8"/>
		<rect x="228.4" y="113.7" width="10.8" height="10.8"/>
		<rect x="294.6" y="121.1" width="10.8" height="10.8"/>
		<rect x="360.9" y="116.8" width="10.8" height="10.8"/>
		<rect x="427.1" y="113.7" width="10.8" height="10.8"/>
		<rect x="493.3" y="116.8" width="10.8" height="10.8"/>
		<rect x="559.5" y="121.1" width="10.8" height="10.8"/>
	</g>
	<g id="_x33_">
		<rect x="3.5" y="200.9" class="st0" width="63.1" height="63.1"/>
		<rect x="69.8" y="200.9" class="st0" width="63.1" height="63.1"/>
		<rect x="136" y="200.9" class="st0" width="63.1" height="63.1"/>
		<rect x="202.2" y="200.9" class="st0" width="63.1" height="63.1"/>
		<rect x="268.5" y="200.9" class="st0" width="63.1" height="63.1"/>
		<rect x="334.7" y="200.9" class="st0" width="63.1" height="63.1"/>
		<rect x="400.9" y="200.9" class="st0" width="63.1" height="63.1"/>
		<rect x="467.1" y="200.9" class="st0" width="63.1" height="63.1"/>
		<rect x="533.4" y="200.9" class="st0" width="63.1" height="63.1"/>
		<rect x="29.7" y="227.1" width="10.8" height="10.8"/>
		<rect x="95.9" y="233.4" transform="matrix(0.9355 -0.3533 0.3533 0.9355 -77.8434 51.1955)" width="10.8" height="10.8"/>
		<rect x="162.2" y="239.8" transform="matrix(0.8105 -0.5858 0.5858 0.8105 -111.8411 144.6087)" width="10.8" height="10.8"/>
		<rect x="228.4" y="246.1" transform="matrix(0.4949 -0.869 0.869 0.4949 -100.4075 330.164)" width="10.8" height="10.8"/>
		<rect x="294.6" y="251.3" transform="matrix(0.321 -0.9471 0.9471 0.321 -39.3528 458.4034)" width="10.8" height="10.8"/>
		
			<rect x="358.6" y="249.2" transform="matrix(2.519956e-02 -0.9997 0.9997 2.519956e-02 100.2942 612.0825)" width="10.8" height="10.8"/>
		<rect x="418.2" y="250.5" transform="matrix(0.8923 -0.4515 0.4515 0.8923 -69.9055 218.8032)" width="10.8" height="10.8"/>
		<rect x="477.7" y="252.6" transform="matrix(0.2163 -0.9763 0.9763 0.2163 126.7683 673.8046)" width="10.8" height="10.8"/>
		<rect x="541.7" y="253.5" width="10.8" height="10.8"/>
	</g>
	<g id="_x34_">
		<rect x="3.5" y="267.2" class="st0" width="63.1" height="63.1"/>
		<rect x="69.8" y="267.2" class="st0" width="63.1" height="63.1"/>
		<rect x="136" y="267.2" class="st0" width="63.1" height="63.1"/>
		<rect x="202.2" y="267.2" class="st0" width="63.1" height="63.1"/>
		<rect x="268.5" y="267.2" class="st0" width="63.1" height="63.1"/>
		<rect x="334.7" y="267.2" class="st0" width="63.1" height="63.1"/>
		<rect x="400.9" y="267.2" class="st0" width="63.1" height="63.1"/>
		<rect x="467.1" y="267.2" class="st0" width="63.1" height="63.1"/>
		<rect x="533.4" y="267.2" class="st0" width="63.1" height="63.1"/>
		<rect x="29.7" y="293.3" width="10.8" height="10.8"/>
		<rect x="95.9" y="295" width="10.8" height="10.8"/>
		<rect x="162.2" y="298.1" width="10.8" height="10.8"/>
		<rect x="228.4" y="304.5" width="10.8" height="10.8"/>
		<rect x="294.6" y="317.1" width="10.8" height="10.8"/>
		<rect x="360.9" y="320.2" width="10.8" height="10.8"/>
		<rect x="427.1" y="320" width="10.8" height="10.8"/>
		<rect x="493.3" y="319.9" width="10.8" height="10.8"/>
		<rect x="559.5" y="319.7" width="10.8" height="10.8"/>
	</g>
	<g id="_x36_">
		<rect x="3.5" y="333.4" class="st0" width="63.1" height="63.1"/>
		<rect x="69.8" y="333.4" class="st0" width="63.1" height="63.1"/>
		<rect x="136" y="333.4" class="st0" width="63.1" height="63.1"/>
		<rect x="202.2" y="333.4" class="st0" width="63.1" height="63.1"/>
		<rect x="268.5" y="333.4" class="st0" width="63.1" height="63.1"/>
		<rect x="334.7" y="333.4" class="st0" width="63.1" height="63.1"/>
		<rect x="400.9" y="333.4" class="st0" width="63.1" height="63.1"/>
		<rect x="467.1" y="333.4" class="st0" width="63.1" height="63.1"/>
		<rect x="533.4" y="333.4" class="st0" width="63.1" height="63.1"/>
		<rect x="29.7" y="359.6" width="10.8" height="10.8"/>
		<rect x="95.9" y="372.3" width="10.8" height="10.8"/>
		<rect x="162.2" y="378.6" width="10.8" height="10.8"/>
		<rect x="228.4" y="381.7" width="10.8" height="10.8"/>
		<rect x="294.6" y="383.3" width="10.8" height="10.8"/>
		<rect x="360.9" y="384.1" width="10.8" height="10.8"/>
		<rect x="427.1" y="384.8" width="10.8" height="10.8"/>
		<rect x="493.3" y="386.1" width="10.8" height="10.8"/>
		<rect x="559.5" y="385.9" width="10.8" height="10.8"/>
	</g>
	<g id="_x37_">
		<rect x="3.5" y="134.7" class="st0" width="63.1" height="63.1"/>
		<rect x="69.8" y="134.7" class="st0" width="63.1" height="63.1"/>
		<rect x="136" y="134.7" class="st0" width="63.1" height="63.1"/>
		<rect x="202.2" y="134.7" class="st0" width="63.1" height="63.1"/>
		<rect x="268.5" y="134.7" class="st0" width="63.1" height="63.1"/>
		<rect x="334.7" y="134.7" class="st0" width="63.1" height="63.1"/>
		<rect x="400.9" y="134.7" class="st0" width="63.1" height="63.1"/>
		<rect x="467.1" y="134.7" class="st0" width="63.1" height="63.1"/>
		<rect x="533.4" y="134.7" class="st0" width="63.1" height="63.1"/>
		<rect x="29.7" y="160.8" width="10.8" height="10.8"/>
		<rect x="95.9" y="167.2" transform="matrix(0.9355 -0.3533 0.3533 0.9355 -54.4448 46.9243)" width="10.8" height="10.8"/>
		<rect x="162.2" y="173.5" transform="matrix(0.8105 -0.5858 0.5858 0.8105 -73.0442 132.0547)" width="10.8" height="10.8"/>
		<rect x="228.4" y="179.8" transform="matrix(0.4949 -0.869 0.869 0.4949 -42.8548 296.7075)" width="10.8" height="10.8"/>
		<rect x="294.6" y="185" transform="matrix(0.321 -0.9471 0.9471 0.321 23.3748 413.4312)" width="10.8" height="10.8"/>
		<rect x="360.9" y="186.1" transform="matrix(0.1257 -0.9921 0.9921 0.1257 130.2143 530.7812)" width="10.8" height="10.8"/>
		
			<rect x="427.1" y="187.3" transform="matrix(2.660123e-02 -0.9996 0.9996 2.660123e-02 228.3685 619.8424)" width="10.8" height="10.8"/>
		
			<rect x="493.3" y="187.3" transform="matrix(2.660123e-02 -0.9996 0.9996 2.660123e-02 292.8366 686.0537)" width="10.8" height="10.8"/>
		<rect x="559.6" y="187.2" transform="matrix(8.899648e-03 -1 1 8.899648e-03 367.301 755.8062)" width="10.8" height="10.8"/>
	</g>
	<g id="Ebene_12">
	</g>
</g>
</svg>
