<?xml version="1.0" encoding="utf-8"?>
<!-- Generator: Adobe Illustrator 16.0.0, SVG Export Plug-In . SVG Version: 6.00 Build 0)  -->
<!DOCTYPE svg PUBLIC "-//W3C//DTD SVG 1.1//EN" "http://www.w3.org/Graphics/SVG/1.1/DTD/svg11.dtd">
<svg version="1.1" id="Ebene_1" xmlns="http://www.w3.org/2000/svg" xmlns:xlink="http://www.w3.org/1999/xlink" x="0px" y="0px"
	 width="32px" height="42px" viewBox="0 0 32 42" enable-background="new 0 0 32 42" xml:space="preserve">
<rect id="_x3C_Slice_x3E_" x="1" y="6" fill="none" width="30" height="30"/>
<path fill="#00cc22" d="M17.269,4.655l-13,7.584v15.148l13,7.584l13-7.584V12.239L17.269,4.655z M18.269,7.555l9.017,5.259
	l-9.017,5.259V7.555z M16.269,18.072l-9.015-5.259l9.015-5.259V18.072z M15.285,19.813l-9.016,5.259V14.555L15.285,19.813z
	 M16.269,21.555v10.518l-9.015-5.259L16.269,21.555z M18.269,21.555l9.017,5.259l-9.017,5.259V21.555z M19.254,19.813l9.015-5.259
	v10.518L19.254,19.813z"/>
<rect fill="none" width="32" height="37"/>
<rect fill="none" width="32" height="37"/>
<polyline fill="none" points="0,42 0,5 32,5 32,42 "/>
<rect id="_x3C_Slice_x3E__1_" x="1" y="5" fill="none" width="30" height="30"/>
</svg>
